<?xml version="1.0" encoding="UTF-8"?>
<!DOCTYPE svg PUBLIC "-//W3C//DTD SVG 1.1//EN" "http://www.w3.org/Graphics/SVG/1.1/DTD/svg11.dtd">
<!-- Creator: CorelDRAW 2020 (64-Bit) -->
<svg xmlns="http://www.w3.org/2000/svg" xml:space="preserve" width="25.4mm" height="15.041mm" version="1.1" style="shape-rendering:geometricPrecision; text-rendering:geometricPrecision; image-rendering:optimizeQuality; fill-rule:evenodd; clip-rule:evenodd"
viewBox="0 0 2540 1504.1"
 xmlns:xlink="http://www.w3.org/1999/xlink"
 xmlns:xodm="http://www.corel.com/coreldraw/odm/2003">
 <defs>
  <style type="text/css">
   <![CDATA[
    .fil0 {fill:white}
   ]]>
  </style>
   <clipPath id="id0">
    <rect x="-196.9" y="-1596.84" width="2540" height="1507.06"/>
   </clipPath>
 </defs>
 <g id="Слой_x0020_1">
  <metadata id="CorelCorpID_0Corel-Layer"/>
  <g style="clip-path:url(#id0)">
   <image x="-196.9" y="-1596.84" width="2540" height="1507.06" xlink:href="чсава_Images\чсава_ImgID1.png"/>
  </g>
  <path class="fil0" d="M1642 698.43l0 0zm-331.52 812.8l-38.42 0 -1.81 -0.11c-211.7,-14.9 -433.58,-63.86 -613.35,-149.32 -167.27,-79.53 -153.9,-94.89 -124.03,-223.1 -132.85,0 -197.47,-14.83 -301.96,-45.18 -58.85,-17.1 -129.92,-41.78 -179.12,-74.87 -23.84,-16.03 -26.26,-25.39 -52.32,-32.35l0 -3.13 0 -3.06 0 -2.99 0 -11.4 0 -2.71c0.12,-50.04 1.88,-72.35 22.28,-115.3 67.12,-141.4 151.31,-166.24 257.12,-217.01 -33.21,-62.76 -76.2,-114.51 -76.2,-211.67 0,-157.51 138.54,-304.79 296.33,-304.79 183.11,0 321.74,120.08 321.74,287.86 6.01,-8.66 2.37,3.45 11.44,-22.42 5.97,-17.03 1.72,-5.69 5.03,-20.37 31.32,-138.63 119.23,-259.53 251.83,-315.44 321.98,-135.73 612.23,133.82 612.23,332.83l16.93 0c5.54,-248.65 382.31,-354.93 530.13,-166.06 178.27,227.78 32.37,342.79 11.74,420.06 37.24,17.87 66.87,26.08 103.49,48.91 74.41,46.39 175.91,168.85 175.91,255.89 0,89.34 -106.44,116.02 -225.31,155.69 -98.44,32.85 -180.2,47.51 -308.09,47.51 3.69,44.3 16.93,64.47 16.93,118.53 0,33.3 3,3.85 -12.31,21.56 -44.55,51.54 -262.36,136.39 -318.96,155.17 -82.55,27.4 -269.68,71.98 -381.25,77.27zm-413.54 -812.8l0 0zm745.06 0c14.13,-60.64 67.74,-101.03 67.74,-237.06l8.46 0c0,70.65 38.9,126.27 67.74,169.33l-143.94 67.73zm-745.06 0c-22.01,-5.87 -46.39,-23.21 -67.65,-33.95 -25.51,-12.88 -50.82,-21.56 -76.29,-33.78 32.43,-61.28 67.74,-108.06 67.74,-203.2l8.46 0c0,127.62 23.65,187.61 67.74,270.93zm1041.4 533.4l-132.54 62.2c-420.4,201.87 -808.01,147.96 -1205.2,-62.2 15.55,-66.74 28.51,-113.23 62.87,-165.73 62.64,-95.69 161.94,-159.41 268.46,-197.21 27.65,-9.81 65.17,-19.77 92.8,-25.73 181.75,-39.21 1.16,-110.09 -49.42,-180.76 -150.71,-210.6 -10.73,-565.1 260.29,-565.1 73.92,0 131.1,-1.83 199.87,37.2 62.91,35.71 127.18,98.23 157.11,164.62 68.38,151.67 29.08,341.79 -125.08,444.99 -117.02,78.34 90.04,111.22 92.95,112.08 149.55,44.31 252.07,104.08 326.85,231.95 41.57,71.08 36.05,112.46 51.04,143.69zm-143.94 -804.33c0,-53.07 26.17,-111.64 58.89,-152.78 109.57,-137.76 389.85,-93.22 389.85,161.25 0,195.76 -270.97,202.57 -28.36,273.89 75.98,22.34 142.67,50.25 187.74,117.06 23.79,35.26 43.82,59.1 43.82,117.05 -33.03,7.69 -51.51,22.13 -81.7,36.83 -114.74,55.84 -236.19,73.23 -367.04,73.23 -72.25,0 -77.79,-125.31 -231.32,-200.48 -37.84,-18.53 -64.16,-35.15 -98.88,-53.52 63.07,-94.17 211.02,-67.1 262.47,-143.93 -29.83,-56.38 -135.47,-103.27 -135.47,-228.6zm-1295.4 -228.6c235.89,0 287.71,239.3 204.78,348.71 -23.35,30.81 -71.93,66.17 -78.83,74.42 -12.98,15.53 -17.21,31.45 -6.38,49.33 9.48,15.64 20.79,19.78 48.42,28.41 53.45,16.7 189.99,35.5 196.08,108.73 -52.18,12.16 -205.76,115.46 -242.17,164.22 -71.41,95.63 -9.51,81.31 -96.5,81.31 -171.42,0 -337.65,-49.82 -440.26,-118.53 25.85,-53.88 13.25,-111.91 125.03,-179.76 28.35,-17.21 72.81,-31.82 108.82,-43.58 52.39,-17.11 73.54,-20.08 104.81,-56.06 -29.59,-55.92 -200.09,-158.11 -107.58,-336.18 32.62,-62.78 105.37,-121.02 183.78,-121.02z"/>
 </g>
</svg>
