<svg id="Capa_1" enable-background="new 0 0 497 497" height="512" viewBox="0 0 497 497" width="512" xmlns="http://www.w3.org/2000/svg"><g><path d="m248.5 0c112.39 0 203.5 111.257 203.5 248.5s-91.11 248.5-203.5 248.5c137.243 0 248.5-111.257 248.5-248.5s-111.257-248.5-248.5-248.5z" fill="#4a527b"/><path d="m467 248.5c0-137.243-97.826-248.5-218.5-248.5-137.243 0-248.5 111.257-248.5 248.5s111.257 248.5 248.5 248.5c120.674 0 218.5-111.257 218.5-248.5zm-181 184.764v-21.794c0-3.035.11-6.045.322-9.026h-75.644c.212 2.981.322 5.991.322 9.026v21.794c-74.019-14.942-132.322-73.245-147.264-147.264h21.794c3.036 0 6.045.114 9.027.326l9.894-104.036c-14.418 8.398-28.04 18.012-40.715 28.71 17.389-86.139 93.499-151 184.764-151s167.375 64.861 184.764 151c-12.675-10.698-26.297-20.312-40.715-28.709l9.893 104.036c2.982-.212 5.991-.326 9.027-.326h21.794c-14.941 74.018-73.244 132.321-147.263 147.263z" fill="#636da4"/><path d="m402.443 286.326c8.445-34.512 5.144-71.308-9.893-104.036-42.327-24.655-91.542-38.79-144.05-38.79s-101.723 14.135-144.049 38.791c-15.038 32.728-18.339 69.523-9.894 104.036 62.1 4.416 111.706 54.019 116.121 116.118 24.821 6.073 50.823 6.073 75.644 0 4.415-62.1 54.021-111.703 116.121-116.119z" fill="#4a527b"/><circle cx="248.5" cy="248.5" fill="#87a1c1" r="75"/><path d="m248.5 203.5v90c24.853 0 45-20.147 45-45s-20.147-45-45-45z" fill="#323752"/><path d="m263.5 248.5c0-24.853-6.716-45-15-45-24.853 0-45 20.147-45 45s20.147 45 45 45c8.284 0 15-20.147 15-45z" fill="#4a527b"/></g></svg>